# xmcd CD database file
#
# Track frame offsets:
#	150
#	22368
#	39097
#	50922
#	62162
#	80723
#	93806
#	111932
#	131365
#	150876
#	167539
#	179781
#	187558
#	202112
#	221265
#	237878
#	264150
#
# Disc length: 3761 seconds
#
# Revision: 0
# Processed by: cddbd v1.5.1PL0 Copyright (c) Steve Scherf et al.
# Submitted via: CDex 1.51
#
DISCID=df0eaf11
DTITLE=Robin Henkel - Highway
DYEAR=1999
DGENRE=Blues
TTITLE0=Bb Blues
TTITLE1=Helena 1
TTITLE2=Tonopah
TTITLE3=E Minor 6
TTITLE4=Steel Swing
TTITLE5=Highway
TTITLE6=Pepe
TTITLE7=Mahtochiquala 1
TTITLE8=Gee Wiz
TTITLE9=Ocean Lullaby
TTITLE10=Walking My Troubles Away
TTITLE11=Hawaiian Song
TTITLE12=Down by the Riverside
TTITLE13=Paddycake
TTITLE14=Mahtochiquala 2
TTITLE15=Helena 2
TTITLE16=Pancakes
EXTD=YEAR: 1999
EXTT0=
EXTT1=
EXTT2=
EXTT3=
EXTT4=
EXTT5=
EXTT6=
EXTT7=
EXTT8=
EXTT9=
EXTT10=
EXTT11=
EXTT12=
EXTT13=
EXTT14=
EXTT15=
EXTT16=
PLAYORDER=
